<svg width="201" height="108" viewBox="0 0 201 108" fill="none" xmlns="http://www.w3.org/2000/svg">
<g filter="url(#filter0_d)">
<rect x="4" width="193" height="100" rx="3" fill="white"/>
</g>
<path d="M71.468 69.1867H72.716C72.74 69.1867 72.76 69.1787 72.776 69.1627C72.8 69.1387 72.808 69.1147 72.8 69.0907L72.104 65.9587C72.104 65.9507 72.1 65.9467 72.092 65.9467C72.084 65.9467 72.08 65.9507 72.08 65.9587L71.384 69.0907C71.376 69.1147 71.38 69.1387 71.396 69.1627C71.42 69.1787 71.444 69.1867 71.468 69.1867ZM73.58 64.5547L75.932 72.0187C75.98 72.1787 75.952 72.3267 75.848 72.4627C75.752 72.5987 75.62 72.6667 75.452 72.6667H74.276C74.076 72.6667 73.896 72.6067 73.736 72.4867C73.584 72.3587 73.488 72.1987 73.448 72.0067L73.244 71.0827C73.228 71.0187 73.188 70.9867 73.124 70.9867H71.072C70.992 70.9867 70.948 71.0187 70.94 71.0827L70.736 72.0067C70.696 72.1987 70.596 72.3587 70.436 72.4867C70.284 72.6067 70.108 72.6667 69.908 72.6667H68.78C68.612 72.6667 68.476 72.5987 68.372 72.4627C68.276 72.3267 68.252 72.1787 68.3 72.0187L70.652 64.5547C70.708 64.3627 70.816 64.2067 70.976 64.0867C71.144 63.9667 71.332 63.9067 71.54 63.9067H72.692C72.892 63.9067 73.072 63.9667 73.232 64.0867C73.4 64.2067 73.516 64.3627 73.58 64.5547ZM79.8654 68.2267C80.3854 68.2267 80.7854 68.1067 81.0654 67.8667C81.3454 67.6267 81.4854 67.2867 81.4854 66.8467C81.4854 66.0067 80.9454 65.5867 79.8654 65.5867C79.7134 65.5867 79.5654 65.5987 79.4214 65.6227C79.3574 65.6387 79.3254 65.6827 79.3254 65.7547V68.0827C79.3254 68.1467 79.3574 68.1867 79.4214 68.2027C79.6134 68.2187 79.7614 68.2267 79.8654 68.2267ZM79.6254 63.7867C82.3454 63.7867 83.7054 64.7667 83.7054 66.7267C83.7054 67.7907 83.3974 68.5987 82.7814 69.1507C82.1734 69.6947 81.2814 69.9667 80.1054 69.9667C79.9294 69.9667 79.7054 69.9587 79.4334 69.9427C79.3614 69.9427 79.3254 69.9747 79.3254 70.0387V71.9827C79.3254 72.1667 79.2574 72.3267 79.1214 72.4627C78.9854 72.5987 78.8254 72.6667 78.6414 72.6667H77.6694C77.4854 72.6667 77.3254 72.5987 77.1894 72.4627C77.0534 72.3267 76.9854 72.1667 76.9854 71.9827V64.6507C76.9854 64.4587 77.0494 64.2867 77.1774 64.1347C77.3054 63.9827 77.4654 63.8987 77.6574 63.8827C78.3374 63.8187 78.9934 63.7867 79.6254 63.7867ZM86.9364 63.9067C87.1204 63.9067 87.2804 63.9747 87.4164 64.1107C87.5524 64.2467 87.6204 64.4067 87.6204 64.5907V71.9827C87.6204 72.1667 87.5524 72.3267 87.4164 72.4627C87.2804 72.5987 87.1204 72.6667 86.9364 72.6667H85.6644C85.4804 72.6667 85.3204 72.5987 85.1844 72.4627C85.0484 72.3267 84.9804 72.1667 84.9804 71.9827V64.5907C84.9804 64.4067 85.0484 64.2467 85.1844 64.1107C85.3204 63.9747 85.4804 63.9067 85.6644 63.9067H86.9364ZM101.02 63.9067C101.204 63.9067 101.364 63.9747 101.5 64.1107C101.636 64.2467 101.704 64.4067 101.704 64.5907V71.9827C101.704 72.1667 101.636 72.3267 101.5 72.4627C101.364 72.5987 101.204 72.6667 101.02 72.6667H100.144C99.9595 72.6667 99.7995 72.5987 99.6635 72.4627C99.5275 72.3267 99.4595 72.1667 99.4595 71.9827V67.8787C99.4595 67.8707 99.4555 67.8667 99.4475 67.8667C99.4395 67.8667 99.4355 67.8707 99.4355 67.8787L98.5595 70.2307C98.4875 70.4227 98.3675 70.5787 98.1995 70.6987C98.0315 70.8107 97.8435 70.8667 97.6355 70.8667H97.0835C96.8755 70.8667 96.6875 70.8107 96.5195 70.6987C96.3515 70.5787 96.2315 70.4227 96.1595 70.2307L95.2835 67.8787C95.2835 67.8707 95.2795 67.8667 95.2715 67.8667C95.2635 67.8667 95.2595 67.8707 95.2595 67.8787V71.9827C95.2595 72.1667 95.1915 72.3267 95.0555 72.4627C94.9195 72.5987 94.7595 72.6667 94.5755 72.6667H93.7475C93.5635 72.6667 93.4035 72.5987 93.2675 72.4627C93.1315 72.3267 93.0635 72.1667 93.0635 71.9827V64.5907C93.0635 64.4067 93.1315 64.2467 93.2675 64.1107C93.4035 63.9747 93.5635 63.9067 93.7475 63.9067H94.8155C95.0235 63.9067 95.2115 63.9667 95.3795 64.0867C95.5475 64.1987 95.6635 64.3507 95.7275 64.5427L97.3475 69.0547C97.3475 69.0627 97.3515 69.0667 97.3595 69.0667C97.3675 69.0667 97.3715 69.0627 97.3715 69.0547L98.9915 64.5427C99.0555 64.3507 99.1715 64.1987 99.3395 64.0867C99.5075 63.9667 99.6955 63.9067 99.9035 63.9067H101.02ZM105.294 66.4267C105.478 66.4267 105.638 66.4947 105.774 66.6307C105.91 66.7667 105.978 66.9267 105.978 67.1107V71.9827C105.978 72.1667 105.91 72.3267 105.774 72.4627C105.638 72.5987 105.478 72.6667 105.294 72.6667H104.262C104.078 72.6667 103.918 72.5987 103.782 72.4627C103.646 72.3267 103.578 72.1667 103.578 71.9827V67.1107C103.578 66.9267 103.646 66.7667 103.782 66.6307C103.918 66.4947 104.078 66.4267 104.262 66.4267H105.294ZM105.294 63.6667C105.478 63.6667 105.638 63.7347 105.774 63.8707C105.91 64.0067 105.978 64.1667 105.978 64.3507V64.6627C105.978 64.8467 105.91 65.0067 105.774 65.1427C105.638 65.2787 105.478 65.3467 105.294 65.3467H104.262C104.078 65.3467 103.918 65.2787 103.782 65.1427C103.646 65.0067 103.578 64.8467 103.578 64.6627V64.3507C103.578 64.1667 103.646 64.0067 103.782 63.8707C103.918 63.7347 104.078 63.6667 104.262 63.6667H105.294ZM109.977 67.2067C110.473 66.6067 111.085 66.3067 111.813 66.3067C112.541 66.3067 113.061 66.5147 113.373 66.9307C113.693 67.3467 113.853 68.0587 113.853 69.0667V71.9827C113.853 72.1667 113.785 72.3267 113.649 72.4627C113.513 72.5987 113.353 72.6667 113.169 72.6667H112.317C112.133 72.6667 111.973 72.5987 111.837 72.4627C111.701 72.3267 111.633 72.1667 111.633 71.9827V69.0667C111.633 68.6987 111.581 68.4467 111.477 68.3107C111.373 68.1747 111.185 68.1067 110.913 68.1067C110.689 68.1067 110.481 68.1947 110.289 68.3707C110.105 68.5467 110.013 68.7387 110.013 68.9467V71.9827C110.013 72.1667 109.945 72.3267 109.809 72.4627C109.673 72.5987 109.513 72.6667 109.329 72.6667H108.417C108.233 72.6667 108.073 72.5987 107.937 72.4627C107.801 72.3267 107.733 72.1667 107.733 71.9827V67.1107C107.733 66.9267 107.801 66.7667 107.937 66.6307C108.073 66.4947 108.233 66.4267 108.417 66.4267H109.233C109.425 66.4267 109.589 66.4947 109.725 66.6307C109.861 66.7587 109.933 66.9187 109.941 67.1107V67.2067C109.941 67.2147 109.945 67.2187 109.953 67.2187C109.969 67.2187 109.977 67.2147 109.977 67.2067ZM117.259 66.4267C117.443 66.4267 117.603 66.4947 117.739 66.6307C117.875 66.7667 117.943 66.9267 117.943 67.1107V71.9827C117.943 72.1667 117.875 72.3267 117.739 72.4627C117.603 72.5987 117.443 72.6667 117.259 72.6667H116.227C116.043 72.6667 115.883 72.5987 115.747 72.4627C115.611 72.3267 115.543 72.1667 115.543 71.9827V67.1107C115.543 66.9267 115.611 66.7667 115.747 66.6307C115.883 66.4947 116.043 66.4267 116.227 66.4267H117.259ZM117.259 63.6667C117.443 63.6667 117.603 63.7347 117.739 63.8707C117.875 64.0067 117.943 64.1667 117.943 64.3507V64.6627C117.943 64.8467 117.875 65.0067 117.739 65.1427C117.603 65.2787 117.443 65.3467 117.259 65.3467H116.227C116.043 65.3467 115.883 65.2787 115.747 65.1427C115.611 65.0067 115.543 64.8467 115.543 64.6627V64.3507C115.543 64.1667 115.611 64.0067 115.747 63.8707C115.883 63.7347 116.043 63.6667 116.227 63.6667H117.259ZM124.317 63.8467C124.509 63.8707 124.665 63.9627 124.785 64.1227C124.913 64.2747 124.977 64.4507 124.977 64.6507V64.9027C124.977 65.0707 124.909 65.2067 124.773 65.3107C124.645 65.4147 124.497 65.4547 124.329 65.4307C124.185 65.4147 124.081 65.4067 124.017 65.4067C123.641 65.4067 123.397 65.4707 123.285 65.5987C123.173 65.7187 123.117 65.9947 123.117 66.4267V66.5587C123.117 66.6307 123.153 66.6667 123.225 66.6667H124.173C124.357 66.6667 124.517 66.7347 124.653 66.8707C124.789 67.0067 124.857 67.1667 124.857 67.3507V67.5427C124.857 67.7267 124.789 67.8867 124.653 68.0227C124.517 68.1587 124.357 68.2267 124.173 68.2267H123.225C123.153 68.2267 123.117 68.2627 123.117 68.3347V71.9827C123.117 72.1667 123.049 72.3267 122.913 72.4627C122.777 72.5987 122.617 72.6667 122.433 72.6667H121.461C121.277 72.6667 121.117 72.5987 120.981 72.4627C120.845 72.3267 120.777 72.1667 120.777 71.9827V68.3347C120.777 68.2627 120.741 68.2267 120.669 68.2267H120.141C119.957 68.2267 119.797 68.1587 119.661 68.0227C119.525 67.8867 119.457 67.7267 119.457 67.5427V67.3507C119.457 67.1667 119.525 67.0067 119.661 66.8707C119.797 66.7347 119.957 66.6667 120.141 66.6667H120.669C120.741 66.6667 120.777 66.6307 120.777 66.5587V66.4267C120.777 65.5147 120.989 64.8467 121.413 64.4227C121.837 63.9987 122.505 63.7867 123.417 63.7867C123.697 63.7867 123.997 63.8067 124.317 63.8467ZM131.675 66.4267C131.843 66.4267 131.971 66.4947 132.059 66.6307C132.155 66.7587 132.179 66.9027 132.131 67.0627L129.407 74.6707C129.335 74.8627 129.215 75.0147 129.047 75.1267C128.879 75.2467 128.695 75.3067 128.495 75.3067H127.463C127.295 75.3067 127.163 75.2387 127.067 75.1027C126.979 74.9747 126.967 74.8347 127.031 74.6827L127.823 72.7627C127.831 72.7307 127.835 72.6987 127.835 72.6667C127.835 72.6347 127.831 72.6027 127.823 72.5707L125.759 67.0627C125.695 66.9107 125.711 66.7667 125.807 66.6307C125.903 66.4947 126.035 66.4267 126.203 66.4267H127.355C127.547 66.4267 127.719 66.4907 127.871 66.6187C128.031 66.7467 128.131 66.9067 128.171 67.0987L128.867 70.6147C128.867 70.6227 128.871 70.6267 128.879 70.6267C128.887 70.6267 128.891 70.6227 128.891 70.6147L129.791 67.0867C129.839 66.8947 129.943 66.7387 130.103 66.6187C130.263 66.4907 130.443 66.4267 130.643 66.4267H131.675Z" fill="#63DFB3"/>
<path d="M113.667 37.3333H111.667V32C111.667 30.5333 110.467 29.3333 109 29.3333H103.667V27.3333C103.667 25.4933 102.173 24 100.333 24C98.4933 24 97 25.4933 97 27.3333V29.3333H91.6667C90.2 29.3333 89.0133 30.5333 89.0133 32V37.0667H91C92.9867 37.0667 94.6 38.68 94.6 40.6667C94.6 42.6533 92.9867 44.2667 91 44.2667H89V49.3333C89 50.8 90.2 52 91.6667 52H96.7333V50C96.7333 48.0133 98.3467 46.4 100.333 46.4C102.32 46.4 103.933 48.0133 103.933 50V52H109C110.467 52 111.667 50.8 111.667 49.3333V44H113.667C115.507 44 117 42.5067 117 40.6667C117 38.8267 115.507 37.3333 113.667 37.3333Z" fill="#63DFB3"/>
<defs>
<filter id="filter0_d" x="0" y="0" width="201" height="108" filterUnits="userSpaceOnUse" color-interpolation-filters="sRGB">
<feFlood flood-opacity="0" result="BackgroundImageFix"/>
<feColorMatrix in="SourceAlpha" type="matrix" values="0 0 0 0 0 0 0 0 0 0 0 0 0 0 0 0 0 0 127 0"/>
<feOffset dy="4"/>
<feGaussianBlur stdDeviation="2"/>
<feColorMatrix type="matrix" values="0 0 0 0 0 0 0 0 0 0 0 0 0 0 0 0 0 0 0.25 0"/>
<feBlend mode="normal" in2="BackgroundImageFix" result="effect1_dropShadow"/>
<feBlend mode="normal" in="SourceGraphic" in2="effect1_dropShadow" result="shape"/>
</filter>
</defs>
</svg>
